<?xml version="1.0" encoding="UTF-8" standalone="no"?>
<svg
   xmlns:dc="http://purl.org/dc/elements/1.1/"
   xmlns:cc="http://creativecommons.org/ns#"
   xmlns:rdf="http://www.w3.org/1999/02/22-rdf-syntax-ns#"
   xmlns:svg="http://www.w3.org/2000/svg"
   xmlns="http://www.w3.org/2000/svg"
   viewBox="0 0 1280 720"
   height="720"
   width="1280"
   xml:space="preserve"
   id="svg2"
   version="1.1"><metadata
     id="metadata8"><rdf:RDF><cc:Work
         rdf:about=""><dc:format>image/svg+xml</dc:format><dc:type
           rdf:resource="http://purl.org/dc/dcmitype/StillImage" /></cc:Work></rdf:RDF></metadata><defs
     id="defs6"><clipPath
       id="clipPath20"
       clipPathUnits="userSpaceOnUse"><path
         id="path18"
         d="M 0,0 H 960 V 540 H 0 Z" /></clipPath></defs><g
     transform="matrix(1.3333333,0,0,-1.3333333,0,720)"
     id="g10"><g
       id="g12" /><g
       id="g14"><g
         clip-path="url(#clipPath20)"
         id="g16"><path
           id="path22"
           style="fill:#ffffff;fill-opacity:1;fill-rule:nonzero;stroke:none"
           d="M 0,540 H 960 V -7.968047e-6 H 0 Z" /><path
           id="path24"
           style="fill:#000000;fill-opacity:1;fill-rule:nonzero;stroke:none"
           d="m 620.6077,53.65401 -3.375,-6.75 -3.375,6.75 h 2.25 v 15.3339 h 3e-4 v 19.8339 h 2.25 v -22.0839 h -3e-4 v -13.0839 z" /><path
           id="path26"
           style="fill:#000000;fill-opacity:1;fill-rule:nonzero;stroke:none"
           d="m 782.2451,29.76187 6.75,-3.375 -6.75,-3.375 v 2.25 h -36.9902 v 0.20236 h -41.4902 v 2.25 h 43.7402 v -0.20236 h 34.7402 z" /><path
           id="path28"
           style="fill:#000000;fill-opacity:1;fill-rule:nonzero;stroke:none"
           d="m 870.5932,58.00286 3.375,-6.75 3.375,6.75 h -2.25 v 72.37354 h -10e-5 V 207.25 h -2.25 v -79.1236 h 10e-5 V 58.00286 Z" /><path
           id="path30"
           style="fill:#000000;fill-opacity:1;fill-rule:nonzero;stroke:none"
           d="m 620.608,298.6486 -3.375,-6.75 -3.375,6.75 h 2.25 v 44.3781 h 2.75 v -21.0041 h -0.5 v -23.374 z" /><path
           id="path32"
           style="fill:#000000;fill-opacity:1;fill-rule:nonzero;stroke:none"
           d="m 620.608,445.4642 -3.375,-6.75 -3.375,6.75 h 2.25 v 38.8341 h 3.25 v -15.9601 h -1 v -22.874 z" /><path
           id="path34"
           style="fill:#000000;fill-opacity:1;fill-rule:nonzero;stroke:none"
           d="m 88.90693,392.6443 -3.375,-6.75 -3.375,6.75 h 2.25 v 14.4661 h 0.5 v 18.966 h 2.25 v -21.216 h -0.5 v -12.2161 z" /><path
           id="path36"
           style="fill:#000000;fill-opacity:1;fill-rule:nonzero;stroke:none"
           d="m 82.65689,476.6102 3.375,-6.75 3.375,6.75 h -2.25 v 4.0496 h -1.05882 v 8.5495 h -2.25 v -10.7995 h 1.05882 v -1.7996 z" /><path
           id="path38"
           style="fill:#ed7d31;fill-opacity:1;fill-rule:nonzero;stroke:none"
           d="m 816.336,51.25284 h 115.2643 c 15.1,0 27.3409,-11.13288 27.3409,-24.86599 0,-13.7331 -12.2409,-24.865983 -27.3409,-24.865983 H 816.336 c -15.1,0 -27.3409,11.132883 -27.3409,24.865983 0,13.73311 12.2409,24.86599 27.3409,24.86599 z" /><g
           transform="matrix(7.874016e-5,0,0,-7.874016e-5,788.9951,51.25284)"
           id="g40"><path
             id="path42"
             style="fill:none;stroke:#ae5a21;stroke-width:12700;stroke-linecap:butt;stroke-linejoin:miter;stroke-miterlimit:8;stroke-dasharray:none;stroke-opacity:1"
             d="M 347228.9,0 H 1811086 c 191769,0 347229,141387.6 347229,315798 0,174410.5 -155460,315798 -347229,315798 H 347228.9 C 155459.7,631596 0,490208.5 0,315798 0,141387.6 155459.7,0 347228.9,0 Z" /></g><g
           transform="translate(857.4231,20.18683)"
           id="g44"><text
             id="text48"
             style="font-variant:normal;font-weight:normal;font-size:18px;font-family:Calibri;-inkscape-font-specification:Calibri;writing-mode:lr-tb;fill:#ffffff;fill-opacity:1;fill-rule:nonzero;stroke:none"
             transform="scale(1,-1)"><tspan
               id="tspan46"
               y="0"
               x="0 8.2494001 14.0868 23.596201">Stop</tspan></text>
</g><path
           id="path50"
           style="fill:#5b9bd5;fill-opacity:1;fill-rule:nonzero;stroke:none"
           d="M 1.058898,469.8602 H 171.0049 V 426.0764 H 1.058898 Z" /><g
           transform="matrix(7.874016e-5,0,0,-7.874016e-5,1.058898,469.8602)"
           id="g52"><path
             id="path54"
             style="fill:none;stroke:#41719c;stroke-width:12700;stroke-linecap:butt;stroke-linejoin:miter;stroke-miterlimit:8;stroke-dasharray:none;stroke-opacity:1"
             d="M 0,0 H 2158314 V 556054 H 0 Z" /></g><g
           transform="translate(49.17937,441.7683)"
           id="g56"><text
             id="text60"
             style="font-variant:normal;font-weight:normal;font-size:18px;font-family:Calibri;-inkscape-font-specification:Calibri;writing-mode:lr-tb;fill:#ffffff;fill-opacity:1;fill-rule:nonzero;stroke:none"
             transform="scale(1,-1)"><tspan
               id="tspan58"
               y="0"
               x="0 8.8704004 17.4888 23.443199 30.441601 39.438">Parse	</tspan></text>
</g><g
           transform="translate(92.74437,441.7683)"
           id="g62"><text
             id="text66"
             style="font-variant:normal;font-weight:normal;font-size:18px;font-family:Calibri;-inkscape-font-specification:Calibri;writing-mode:lr-tb;fill:#ffffff;fill-opacity:1;fill-rule:nonzero;stroke:none"
             transform="scale(1,-1)"><tspan
               id="tspan64"
               y="0"
               x="0 8.6255999 14.6412 23.1408">args</tspan></text>
</g><path
           id="path68"
           style="fill:#ffc000;fill-opacity:1;fill-rule:nonzero;stroke:none"
           d="M 0.5588189,323.1375 85.53185,385.8943 170.5049,323.1375 85.53185,260.3808 Z" /><g
           transform="matrix(7.874016e-5,0,0,-7.874016e-5,0.5588189,385.8943)"
           id="g70"><path
             id="path72"
             style="fill:none;stroke:#bc8c00;stroke-width:12700;stroke-linecap:butt;stroke-linejoin:miter;stroke-miterlimit:8;stroke-dasharray:none;stroke-opacity:1"
             d="M 0,797010.5 1079158,0 2158315,797010.5 1079158,1594021 Z" /></g><g
           transform="translate(57.02433,327.7375)"
           id="g74"><text
             id="text78"
             style="font-variant:normal;font-weight:normal;font-size:18px;font-family:Calibri;-inkscape-font-specification:Calibri;writing-mode:lr-tb;fill:#ffffff;fill-opacity:1;fill-rule:nonzero;stroke:none"
             transform="scale(1,-1)"><tspan
               id="tspan76"
               y="0"
               x="0 8.2494001 17.758801 21.8862 26.013599 32.013 36.1404 41.275799 50.785198 57.036598">Split	for	</tspan></text>
</g><g
           transform="translate(56.78433,306.7375)"
           id="g80"><text
             id="text84"
             style="font-variant:normal;font-weight:normal;font-size:18px;font-family:Calibri;-inkscape-font-specification:Calibri;writing-mode:lr-tb;fill:#ffffff;fill-opacity:1;fill-rule:nonzero;stroke:none"
             transform="scale(1,-1)"><tspan
               id="tspan82"
               y="0"
               x="0 7.6248002 11.7576 21.2544 28.051201 33.875999 42.868801 49.125599">cluster?</tspan></text>
</g><path
           id="path86"
           style="fill:#ffc000;fill-opacity:1;fill-rule:nonzero;stroke:none"
           d="m 532.2599,229.1419 84.9731,62.7567 84.973,-62.7567 -84.973,-62.7568 z" /><g
           transform="matrix(7.874016e-5,0,0,-7.874016e-5,532.2599,291.8986)"
           id="g88"><path
             id="path90"
             style="fill:none;stroke:#bc8c00;stroke-width:12700;stroke-linecap:butt;stroke-linejoin:miter;stroke-miterlimit:8;stroke-dasharray:none;stroke-opacity:1"
             d="M 0,797010.5 1079158,0 2158315,797010.5 1079158,1594021 Z" /></g><g
           transform="translate(592.4279,233.7419)"
           id="g92"><text
             id="text96"
             style="font-variant:normal;font-weight:normal;font-size:18px;font-family:Calibri;-inkscape-font-specification:Calibri;writing-mode:lr-tb;fill:#ffffff;fill-opacity:1;fill-rule:nonzero;stroke:none"
             transform="scale(1,-1)"><tspan
               id="tspan94"
               y="0"
               x="0 7.6248002 17.121599 24.6024 33.235199 37.368 41.500801 49.629601">Locally	</tspan></text>
</g><g
           transform="translate(586.0379,212.7419)"
           id="g98"><text
             id="text102"
             style="font-variant:normal;font-weight:normal;font-size:18px;font-family:Calibri;-inkscape-font-specification:Calibri;writing-mode:lr-tb;fill:#ffffff;fill-opacity:1;fill-rule:nonzero;stroke:none"
             transform="scale(1,-1)"><tspan
               id="tspan100"
               y="0"
               x="0 9.5003996 18.118799 24.0012 32.619598 36.737999 40.8564 49.852798 53.971199">parallel?</tspan></text>
</g><path
           id="path104"
           style="fill:#5b9bd5;fill-opacity:1;fill-rule:nonzero;stroke:none"
           d="M 532.76,512.622 H 702.7059 V 468.8382 H 532.76 Z" /><g
           transform="matrix(7.874016e-5,0,0,-7.874016e-5,532.76,512.622)"
           id="g106"><path
             id="path108"
             style="fill:none;stroke:#41719c;stroke-width:12700;stroke-linecap:butt;stroke-linejoin:miter;stroke-miterlimit:8;stroke-dasharray:none;stroke-opacity:1"
             d="M 0,0 H 2158313 V 556054 H 0 Z" /></g><g
           transform="translate(560.2604,484.5301)"
           id="g110"><text
             id="text114"
             style="font-variant:normal;font-weight:normal;font-size:18px;font-family:Calibri;-inkscape-font-specification:Calibri;writing-mode:lr-tb;fill:#ffffff;fill-opacity:1;fill-rule:nonzero;stroke:none"
             transform="scale(1,-1)"><tspan
               id="tspan112"
               y="0"
               x="0 9.4446001 18.439199 27.073799 36.572399 40.707001 55.083599 64.582199 70.372803 78.845398 84.851997 88.986603 98.485199 107.9838">Read	mutations</tspan></text>
</g><path
           id="path116"
           style="fill:#5b9bd5;fill-opacity:1;fill-rule:nonzero;stroke:none"
           d="M 532.76,439.2142 H 702.7059 V 395.4304 H 532.76 Z" /><g
           transform="matrix(7.874016e-5,0,0,-7.874016e-5,532.76,439.2142)"
           id="g118"><path
             id="path120"
             style="fill:none;stroke:#41719c;stroke-width:12700;stroke-linecap:butt;stroke-linejoin:miter;stroke-miterlimit:8;stroke-dasharray:none;stroke-opacity:1"
             d="M 0,0 H 2158313 V 556054 H 0 Z" /></g><g
           transform="translate(545.4705,411.1223)"
           id="g122"><text
             id="text126"
             style="font-variant:normal;font-weight:normal;font-size:18px;font-family:Calibri;-inkscape-font-specification:Calibri;writing-mode:lr-tb;fill:#ffffff;fill-opacity:1;fill-rule:nonzero;stroke:none"
             transform="scale(1,-1)"><tspan
               id="tspan124"
               y="0"
               x="0 9.4446001 18.439199 27.073799 36.572399 40.707001 46.731602 55.582199 60.652802 69.6474 75.671997 84.666603 94.165199 101.7918 110.7864 114.921 124.6716 133.4142">Read	reference	BED</tspan></text>
</g><path
           id="path128"
           style="fill:#5b9bd5;fill-opacity:1;fill-rule:nonzero;stroke:none"
           d="m 532.7599,365.8064 h 169.946 v -43.7838 h -169.946 z" /><g
           transform="matrix(7.874016e-5,0,0,-7.874016e-5,532.7599,365.8064)"
           id="g130"><path
             id="path132"
             style="fill:none;stroke:#41719c;stroke-width:12700;stroke-linecap:butt;stroke-linejoin:miter;stroke-miterlimit:8;stroke-dasharray:none;stroke-opacity:1"
             d="M 0,0 H 2158313 V 556054 H 0 Z" /></g><g
           transform="translate(582.4478,337.7145)"
           id="g134"><text
             id="text138"
             style="font-variant:normal;font-weight:normal;font-size:18px;font-family:Calibri;-inkscape-font-specification:Calibri;writing-mode:lr-tb;fill:#ffffff;fill-opacity:1;fill-rule:nonzero;stroke:none"
             transform="scale(1,-1)"><tspan
               id="tspan136"
               y="0"
               x="0 9.4446001 18.439199 27.073799 36.572399 40.707001 50.3316 59.452202">Read	C3D</tspan></text>
</g><path
           id="path140"
           style="fill:#70ad47;fill-opacity:1;fill-rule:nonzero;stroke:none"
           d="M 27.34086,538.9412 H 142.6052 c 15.1,0 27.3409,-11.1329 27.3409,-24.866 0,-13.7331 -12.2409,-24.866 -27.3409,-24.866 H 27.34086 C 12.24092,489.2092 0,500.3421 0,514.0752 c 0,13.7331 12.24092,24.866 27.34086,24.866 z" /><g
           transform="matrix(7.874016e-5,0,0,-7.874016e-5,0,538.9412)"
           id="g142"><path
             id="path144"
             style="fill:none;stroke:#507e32;stroke-width:12700;stroke-linecap:butt;stroke-linejoin:miter;stroke-miterlimit:8;stroke-dasharray:none;stroke-opacity:1"
             d="M 347228.9,0 H 1811086 c 191769,0 347229,141387.6 347229,315798 0,174410.5 -155460,315798 -347229,315798 H 347228.9 C 155459.7,631596 0,490208.5 0,315798 0,141387.6 155459.7,0 347228.9,0 Z" /></g><g
           transform="translate(67.51799,507.8752)"
           id="g146"><text
             id="text150"
             style="font-variant:normal;font-weight:normal;font-size:18px;font-family:Calibri;-inkscape-font-specification:Calibri;writing-mode:lr-tb;fill:#ffffff;fill-opacity:1;fill-rule:nonzero;stroke:none"
             transform="scale(1,-1)"><tspan
               id="tspan148"
               y="0"
               x="0 8.2494001 14.0328 22.6602 28.9116">Start</tspan></text>
</g><path
           id="path152"
           style="fill:#5b9bd5;fill-opacity:1;fill-rule:nonzero;stroke:none"
           d="M 1.058898,45.90143 H 702.2059 V 2.117648 H 1.058898 Z" /><g
           transform="matrix(7.874016e-5,0,0,-7.874016e-5,1.058898,45.90143)"
           id="g154"><path
             id="path156"
             style="fill:none;stroke:#41719c;stroke-width:12700;stroke-linecap:butt;stroke-linejoin:miter;stroke-miterlimit:8;stroke-dasharray:none;stroke-opacity:1"
             d="M 0,0 H 8904567 V 556054 H 0 Z" /></g><g
           transform="translate(270.4999,17.80951)"
           id="g158"><text
             id="text162"
             style="font-variant:normal;font-weight:normal;font-size:18px;font-family:Calibri;-inkscape-font-specification:Calibri;writing-mode:lr-tb;fill:#ffffff;fill-opacity:1;fill-rule:nonzero;stroke:none"
             transform="scale(1,-1)"><tspan
               id="tspan160"
               y="0"
               x="0 9.6246004 19.123199 23.239799 27.3564 36.351002 43.9776 49.9842 54.118801 63.617401 72.234001 78.114601 86.731201 90.847801 94.964401 103.959 108.0756 112.2102 121.7088 131.2074 137.214 146.7126 156.2112">Collect	parallel	output</tspan></text>
</g><path
           id="path164"
           style="fill:#5b9bd5;fill-opacity:1;fill-rule:nonzero;stroke:none"
           d="M 0.5589764,123.4631 H 170.5049 V 79.67935 H 0.5589764 Z" /><g
           transform="matrix(7.874016e-5,0,0,-7.874016e-5,0.5589764,123.4631)"
           id="g166"><path
             id="path168"
             style="fill:none;stroke:#41719c;stroke-width:12700;stroke-linecap:butt;stroke-linejoin:miter;stroke-miterlimit:8;stroke-dasharray:none;stroke-opacity:1"
             d="M 0,0 H 2158313 V 556054 H 0 Z" /></g><g
           transform="translate(42.50441,95.37125)"
           id="g170"><text
             id="text174"
             style="font-variant:normal;font-weight:normal;font-size:18px;font-family:Calibri;-inkscape-font-specification:Calibri;writing-mode:lr-tb;fill:#ffffff;fill-opacity:1;fill-rule:nonzero;stroke:none"
             transform="scale(1,-1)"><tspan
               id="tspan172"
               y="0"
               x="0 8.2494001 17.758801 27.2682 41.6376 45.764999 51.7644 55.8918 60.145199 69.654602 79.092003">Submit	jobs</tspan></text>
</g><path
           id="path176"
           style="fill:#5b9bd5;fill-opacity:1;fill-rule:nonzero;stroke:none"
           d="m 788.9951,251.0338 h 169.946 V 207.25 h -169.946 z" /><g
           transform="matrix(7.874016e-5,0,0,-7.874016e-5,788.9951,251.0338)"
           id="g178"><path
             id="path180"
             style="fill:none;stroke:#41719c;stroke-width:12700;stroke-linecap:butt;stroke-linejoin:miter;stroke-miterlimit:8;stroke-dasharray:none;stroke-opacity:1"
             d="M 0,0 H 2158315 V 556054 H 0 Z" /></g><g
           transform="translate(829.8605,222.9419)"
           id="g182"><text
             id="text186"
             style="font-variant:normal;font-weight:normal;font-size:18px;font-family:Calibri;-inkscape-font-specification:Calibri;writing-mode:lr-tb;fill:#ffffff;fill-opacity:1;fill-rule:nonzero;stroke:none"
             transform="scale(1,-1)"><tspan
               id="tspan184"
               y="0"
               x="0 9.6246004 18.241199 22.3578 29.9844 39.483002 43.599602 52.072201 58.0788 62.1954 71.694 81.192596">Calculations</tspan></text>
</g><path
           id="path188"
           style="fill:#000000;fill-opacity:1;fill-rule:nonzero;stroke:none"
           d="M 170.5049,322.0125 H 352.7573 V 529.4962 H 616.608 V 519.372 h -2.25 l 3.375,-6.75 3.375,6.75 h -2.25 v 12.3742 H 350.5073 V 324.2625 H 170.5049 Z" /><path
           id="path190"
           style="fill:#000000;fill-opacity:1;fill-rule:nonzero;stroke:none"
           d="m 621.108,372.5564 -3.375,-6.75 -3.375,6.75 h 2.25 v 9.1869 h 1e-4 v 13.6871 h 2.25 v -15.9371 h -1e-4 v -6.9369 z" /><g
           transform="translate(189.292,332.5846)"
           id="g192"><text
             id="text196"
             style="font-variant:normal;font-weight:normal;font-size:18px;font-family:Calibri;-inkscape-font-specification:Calibri;writing-mode:lr-tb;fill:#000000;fill-opacity:1;fill-rule:nonzero;stroke:none"
             transform="scale(1,-1)"><tspan
               id="tspan194"
               y="0"
               x="0 9.5003996">no</tspan></text>
</g><path
           id="path198"
           style="fill:#5b9bd5;fill-opacity:1;fill-rule:nonzero;stroke:none"
           d="M 0.5588189,209.4547 H 170.5047 V 165.6709 H 0.5588189 Z" /><g
           transform="matrix(7.874016e-5,0,0,-7.874016e-5,0.5588189,209.4547)"
           id="g200"><path
             id="path202"
             style="fill:none;stroke:#41719c;stroke-width:12700;stroke-linecap:butt;stroke-linejoin:miter;stroke-miterlimit:8;stroke-dasharray:none;stroke-opacity:1"
             d="M 0,0 H 2158313 V 556054 H 0 Z" /></g><g
           transform="translate(39.09425,181.3628)"
           id="g204"><text
             id="text208"
             style="font-variant:normal;font-weight:normal;font-size:18px;font-family:Calibri;-inkscape-font-specification:Calibri;writing-mode:lr-tb;fill:#ffffff;fill-opacity:1;fill-rule:nonzero;stroke:none"
             transform="scale(1,-1)"><tspan
               id="tspan206"
               y="0"
               x="0 8.2494001 17.758801 21.8862 26.013599 32.013 36.1404 45.757801 54.889198 66.0186 70.146004 75.641403 79.768799 83.896202">Split	C3D	file</tspan></text>
</g><path
           id="path210"
           style="fill:#000000;fill-opacity:1;fill-rule:nonzero;stroke:none"
           d="m 88.90685,216.2046 -3.375,-6.75 -3.375,6.75 h 2.25 v 19.8381 h 8e-5 v 24.338 h 2.25 v -26.588 h -8e-5 v -17.5881 z" /><path
           id="path212"
           style="fill:#000000;fill-opacity:1;fill-rule:nonzero;stroke:none"
           d="m 82.15697,130.2132 3.375,-6.75 3.375,6.75 h -2.25 v 15.4788 h -1.6e-4 v 19.9789 h -2.25 V 143.442 h 1.6e-4 v -13.2288 z" /><g
           transform="translate(96.21882,233.4139)"
           id="g214"><text
             id="text218"
             style="font-variant:normal;font-weight:normal;font-size:18px;font-family:Calibri;-inkscape-font-specification:Calibri;writing-mode:lr-tb;fill:#000000;fill-opacity:1;fill-rule:nonzero;stroke:none"
             transform="scale(1,-1)"><tspan
               id="tspan216"
               y="0"
               x="0 7.9092002 16.916401">yes</tspan></text>
</g><path
           id="path220"
           style="fill:#000000;fill-opacity:1;fill-rule:nonzero;stroke:none"
           d="m 88.90681,49.31481 -3.375,-6.75 -3.375,6.75 h 2.25 v 12.93225 h 2.3e-4 v 17.43232 h 2.25 V 59.99706 h -2.3e-4 V 49.31481 Z" /><path
           id="path222"
           style="fill:#000000;fill-opacity:1;fill-rule:nonzero;stroke:none"
           d="m 620.6077,139.1488 -3.375,-6.75 -3.375,6.75 h 2.25 v 11.3681 h 3e-4 v 15.8683 h 2.25 v -18.1183 h -3e-4 v -9.1181 z" /><path
           id="path224"
           style="fill:#000000;fill-opacity:1;fill-rule:nonzero;stroke:none"
           d="m 782.245,225.7669 6.7501,3.375 -6.7501,3.375 v -2.25 h -37.7694 v -1e-4 H 702.206 v -2.25 h 44.5196 v 1e-4 h 35.5194 z" /><g
           transform="translate(737.8773,202.8962)"
           id="g226"><text
             id="text230"
             style="font-variant:normal;font-weight:normal;font-size:18px;font-family:Calibri;-inkscape-font-specification:Calibri;writing-mode:lr-tb;fill:#000000;fill-opacity:1;fill-rule:nonzero;stroke:none"
             transform="scale(1,-1)"><tspan
               id="tspan228"
               y="0"
               x="0 9.5003996">no</tspan></text>
</g><g
           transform="translate(632.5187,151.5699)"
           id="g232"><text
             id="text236"
             style="font-variant:normal;font-weight:normal;font-size:18px;font-family:Calibri;-inkscape-font-specification:Calibri;writing-mode:lr-tb;fill:#000000;fill-opacity:1;fill-rule:nonzero;stroke:none"
             transform="scale(1,-1)"><tspan
               id="tspan234"
               y="0"
               x="0 7.9092002 16.916401">yes</tspan></text>
</g><path
           id="path238"
           style="fill:#5b9bd5;fill-opacity:1;fill-rule:nonzero;stroke:none"
           d="M 532.2599,132.6056 H 702.206 V 88.82181 H 532.2599 Z" /><g
           transform="matrix(7.874016e-5,0,0,-7.874016e-5,532.2599,132.6056)"
           id="g240"><path
             id="path242"
             style="fill:none;stroke:#41719c;stroke-width:12700;stroke-linecap:butt;stroke-linejoin:miter;stroke-miterlimit:8;stroke-dasharray:none;stroke-opacity:1"
             d="M 0,0 H 2158315 V 556054 H 0 Z" /></g><g
           transform="translate(544.3704,104.5137)"
           id="g244"><text
             id="text248"
             style="font-variant:normal;font-weight:normal;font-size:18px;font-family:Calibri;-inkscape-font-specification:Calibri;writing-mode:lr-tb;fill:#ffffff;fill-opacity:1;fill-rule:nonzero;stroke:none"
             transform="scale(1,-1)"><tspan
               id="tspan246"
               y="0"
               x="0 8.8704004 17.4888 23.371201 31.989599 36.108002 40.226398 49.222801 53.341202 57.459599 67.085999 75.704399 79.8228 87.451202 96.951599 101.07 109.5444 115.5528 119.6712 129.1716 138.672">Parallel	Calculations</tspan></text>
</g></g></g></g></svg>